<?xml version="1.0" encoding="utf-8"?>
<!-- Generator: Adobe Illustrator 15.1.0, SVG Export Plug-In . SVG Version: 6.00 Build 0)  -->
<!DOCTYPE svg PUBLIC "-//W3C//DTD SVG 1.1//EN" "http://www.w3.org/Graphics/SVG/1.1/DTD/svg11.dtd">
<svg version="1.1" xmlns="http://www.w3.org/2000/svg" xmlns:xlink="http://www.w3.org/1999/xlink" x="0px" y="0px" width="244.8px"
	 height="180px" viewBox="0 0 244.8 180" enable-background="new 0 0 244.8 180" xml:space="preserve">
<g id="Layer_1">
	<g>
		<rect x="14.227" y="25.208" fill="#FCFCFC" stroke="#000000" stroke-width="0.5" width="77.875" height="110.22"/>
		<line fill="#FCFCFC" stroke="#000000" stroke-width="0.5" x1="50.327" y1="25.208" x2="50.327" y2="23.25"/>
	</g>
	<text transform="matrix(1 0 0 1 47.8286 22.8335)" font-family="'ArialNarrow-Bold'" font-size="9.5">1</text>
	<text transform="matrix(1 0 0 1 53.7813 22.6665)" fill="none" font-family="'ArialNarrow-Bold'" font-size="9.5">2,3,4,5</text>
	<g>
		<path fill="#FFFFFF" stroke="#000000" stroke-width="0.5" d="M44.607,97.222c0,0,11.78-3.675,16.208-1.421
			c2.423,1.754,2.841,3.009,2.089,4.512c0,5.347,0.083,13.785,0.083,13.785s3.425-2.673,5.431-0.919
			c2.005,1.754,0.418,4.513-0.084,5.181c4.094-0.083,4.094-0.083,4.094-0.083s3.509,1.837,0.167,3.341
			c-4.261,0.165-7.185,0.165-7.185,0.165l-3.76,4.097l-9.858,0.751c0,0-3.761,0.836-3.092-3.677
			c-13.368-0.418-13.368-0.418-13.368-0.418s-2.924,0.922-3.509-3.007c-0.334-1.169,0.084-1.671,0.084-1.671
			c-2.256-0.67-2.256-0.67-2.256-0.67s-0.084-4.178,2.59-4.092C35.25,114.015,35,113.93,35,113.93s1.587,0.835,2.005,1.756
			c3.759,0,3.759,0,3.759,0s0.25-3.76,1.169-4.011c-1.753-1.001-1.753-2.339-1.085-2.759c-4.845,0.251-7.436,0.083-8.104-0.248
			c-0.669-0.337-2.673-1.923-2.005-3.928c0.083-3.176,0.167-5.931,0.167-5.931s-1.588-1.003,0.083-1.505
			c-0.083-1.67-0.083-1.67-0.083-1.67s-0.919-2.673,0-2.924c-0.669-1.923,3.091-3.678,6.6-3.509
			c3.509,0.165,7.102,1.001,7.018,4.009c0,1.757-0.25,2.173-0.5,2.424C43.772,95.887,44.607,97.222,44.607,97.222z"/>
		<ellipse fill="none" stroke="#000000" stroke-width="0.3" cx="37.588" cy="92.25" rx="4.929" ry="2.047"/>
		<path fill="none" stroke="#000000" stroke-width="0.3" d="M30.655,92.627c1.504,1.17,2.757,2.341,7.101,2.172
			c4.345-0.166,5.849-0.918,6.433-2.422"/>
		<path fill="none" stroke="#000000" stroke-width="0.3" d="M31.239,93.045c0,0-1.169,3.674,7.854,3.509"/>
		<path fill="none" stroke="#000000" stroke-width="0.3" d="M30.989,96.052c0,0,2.506,1.838,8.354,1.42
			c-0.167,4.176-0.167,4.176-0.167,4.176s3.008,1.338,3.259,0.169c0.919,0.25,0.919,0.25,0.919,0.25l2.672-1.338l-2.004-3.174
			c0,0-0.584,1.754-3.093,1.754c-2.589,0.252-4.259,0.335-6.182-0.164c-1.921-0.502-3.843-1.338-4.093-1.923"/>
		<ellipse fill="none" stroke="#000000" stroke-width="0.3" cx="40.388" cy="96.303" rx="1.379" ry="0.836"/>
		<polyline fill="none" stroke="#000000" stroke-width="0.3" points="44.523,93.881 42.518,94.465 42.436,95.801 44.189,95.133 		
			"/>
		<path fill="none" stroke="#000000" stroke-width="0.3" d="M39.511,98.14c0,0,4.009-0.333,4.594-1.92"/>
		<polyline fill="none" stroke="#000000" stroke-width="0.3" points="40.346,99.228 41.517,102.318 41.517,106.325 		"/>
		<path fill="none" stroke="#000000" stroke-width="0.3" d="M44.273,102.318c0.668,0,13.033-2.59,13.033-2.59
			s4.262-0.085,4.428-3.01"/>
		<path fill="none" stroke="#000000" stroke-width="0.3" d="M30.822,105.074c1.002,0.918,6.266,2.672,11.363,1.251
			c5.095-1.419,16.708-5.762,16.708-5.762s3.676-1.086,3.593-2.926"/>
		<path fill="none" stroke="#000000" stroke-width="0.3" d="M30.655,106.078c1.671,0.919,8.354,2.253,11.862,1.084
			c3.509-1.17,15.29-5.432,15.29-5.432s5.264-1.751,5.431-2.921"/>
		<path fill="none" stroke="#000000" stroke-width="0.3" d="M31.406,107.413c2.089,0.585,8.355,1.421,12.282,0.083
			c3.926-1.335,19.299-6.851,19.216-7.184"/>
		<polyline fill="none" stroke="#000000" stroke-width="0.3" points="40.848,108.916 46.696,106.745 49.954,108.5 53.713,105.992 
			55.051,107.413 56.388,107.582 56.555,109.419 62.904,109.25 		"/>
		<polyline fill="none" stroke="#000000" stroke-width="0.3" points="40.597,109.752 45.694,107.413 48.2,109.167 46.279,110.168 
			45.861,118.107 		"/>
		<path fill="none" stroke="#000000" stroke-width="0.3" d="M41.933,111.675c0,0,6.517,1.92,7.019,1.504
			c0.25-0.42,0.25-0.42,0.25-0.42l3.426,0.087l1.085,2.672l0.919-1.503c0.669-0.585,0.669-0.585,0.669-0.585v-2.842l1.336-1.421"/>
		<polyline fill="none" stroke="#000000" stroke-width="0.3" points="55.302,107.496 54.716,108.249 54.633,109.838 53.297,110.674 
			53.046,114.265 		"/>
		<line fill="none" stroke="#000000" stroke-width="0.3" x1="53.213" y1="111.589" x2="55.051" y2="113.096"/>
		<line fill="none" stroke="#000000" stroke-width="0.3" x1="46.279" y1="110.168" x2="52.294" y2="110.255"/>
		<path fill="none" stroke="#000000" stroke-width="0.3" d="M47.949,109.25c0.251-0.083,6.183-0.582,6.183-0.582"/>
		<polyline fill="none" stroke="#000000" stroke-width="0.3" points="55.803,110.422 61.066,110.337 61.735,110.84 62.988,110.757 
					"/>
		<path fill="none" stroke="#000000" stroke-width="0.3" d="M40.764,115.686c0.585-0.501,2.674-0.418,4.344,3.342
			c3.258,0.251,3.258,0.251,3.258,0.251l0.585-6.1"/>
		<path fill="none" stroke="#000000" stroke-width="0.3" d="M48.701,115.852c0.25-0.416,1.755-0.416,1.587,0.334"/>
		<path fill="none" stroke="#000000" stroke-width="0.3" d="M48.869,113.681c0,0,3.675,0.584,4.009,0.249"/>
		<path fill="none" stroke="#000000" stroke-width="0.3" d="M50.122,114.015c0,0,0.417,1.421,0.919,1.253"/>
		<path fill="none" stroke="#000000" stroke-width="0.3" d="M51.458,114.098c0,0-0.835,1.588-1.002,1.837l1.253,2.005h3.007
			c0,0-0.417-2.755,1.086-1.42c2.172,2.342,2.924,3.511,4.261,3.594c1.337,0.083,1.588-0.168,1.505-2.006
			c-0.084-1.837,0.668-4.344,1.253-4.344"/>
		<polyline fill="none" stroke="#000000" stroke-width="0.3" points="63.155,112.846 55.385,112.594 58.894,114.431 62.988,114.098 
					"/>
		<polyline fill="none" stroke="#000000" stroke-width="0.3" points="59.313,114.348 59.563,113.01 59.062,118.525 		"/>
		<path fill="none" stroke="#000000" stroke-width="0.3" d="M48.283,122.618l10.11,0.42c0,0,2.422,0.165,2.339-2.842"/>
		<path fill="none" stroke="#000000" stroke-width="0.3" d="M60.565,121.7l5.765-3.175c0,0,3.76-3.761-0.083-5.599"/>
		<line fill="none" stroke="#000000" stroke-width="0.3" x1="66.33" y1="118.525" x2="59.563" y2="126.213"/>
		<line fill="none" stroke="#000000" stroke-width="0.3" x1="57.056" y1="122.87" x2="51.541" y2="126.547"/>
		<path fill="none" stroke="#000000" stroke-width="0.3" d="M52.795,122.787c-0.669,1.001,1.337,2.422,2.256,0.333"/>
		<ellipse fill="none" stroke="#000000" stroke-width="0.3" cx="34.54" cy="118.9" rx="2.298" ry="3.553"/>
		<ellipse fill="none" stroke="#000000" stroke-width="0.3" cx="34.415" cy="119.11" rx="0.585" ry="0.92"/>
		<path fill="none" stroke="#000000" stroke-width="0.3" d="M51.208,124.166c0,0.62-0.318,1.128-0.71,1.128
			c-0.393,0-0.71-0.508-0.71-1.128c0-0.624,0.317-1.128,0.71-1.128C50.89,123.038,51.208,123.542,51.208,124.166z"/>
		<path fill="none" stroke="#000000" stroke-width="0.3" d="M66.664,115.349c0,0.603-0.336,1.088-0.751,1.088
			c-0.416,0-0.752-0.485-0.752-1.088c0-0.598,0.337-1.084,0.752-1.084C66.328,114.265,66.664,114.751,66.664,115.349z"/>
		<ellipse fill="none" stroke="#000000" stroke-width="0.3" cx="41.851" cy="100.271" rx="0.334" ry="0.541"/>
		<path fill="none" stroke="#000000" stroke-width="0.3" d="M45.192,100.563c0,0.139-0.187,0.248-0.418,0.248
			c-0.229,0-0.417-0.109-0.417-0.248c0-0.142,0.187-0.251,0.417-0.251C45.005,100.313,45.192,100.422,45.192,100.563z"/>
		<line fill="none" stroke="#000000" stroke-width="0.3" x1="51.291" y1="117.44" x2="53.297" y2="114.6"/>
		<path fill="none" stroke="#000000" stroke-width="0.3" d="M68.084,118.276c-0.25,0.249-2.924,3.843-2.924,3.843"/>
		<path fill="none" stroke="#000000" stroke-width="0.3" d="M33.162,116.021c-0.752-0.672,1.002-2.591,2.088-1.923"/>
	</g>
</g>
<g id="Layer_2">
	<g>
		<path fill="#FFFFFF" stroke="#000000" stroke-width="0.5" d="M82.931,104.12c3.843,0.168,5.765,2.674,5.012,7.019
			c-0.752,4.346-3.258,4.512-5.347,4.512c-2.089,0-4.177-2.17-4.094-6.518C78.919,104.204,82.931,104.12,82.931,104.12z"/>
		<ellipse fill="none" stroke="#000000" stroke-width="0.3" cx="82.679" cy="109.928" rx="3.092" ry="4.554"/>
		<ellipse fill="none" stroke="#000000" stroke-width="0.3" cx="82.847" cy="110.094" rx="2.34" ry="3.302"/>
		<ellipse fill="none" stroke="#000000" stroke-width="0.3" cx="82.804" cy="109.844" rx="1.545" ry="1.797"/>
		<path fill="none" stroke="#000000" stroke-width="0.3" d="M83.264,108.131c-0.584,0.169-1.17,3.344-0.46,3.51"/>
		<path fill="none" stroke="#000000" stroke-width="0.3" d="M84.601,104.288c1.754,1.085,3.76,7.103-0.167,11.113"/>
	</g>
	<g>
		<line fill="none" stroke="#000000" stroke-width="0.5" x1="83.502" y1="117.425" x2="83.586" y2="123.525"/>
		<polygon points="85.021,118.554 83.484,116.082 82.016,118.595 		"/>
	</g>
	<text transform="matrix(1 0 0 1 81.4346 131.0889)" font-family="'ArialNarrow-Bold'" font-size="9.5">2</text>
</g>
<g id="Layer_3">
	<g>
		<path fill="#FFFFFF" stroke="#000000" stroke-width="0.5" d="M41.229,55.342c1.208,1.485,3.343,0.649,3.714-0.93
			c3.157-2.135,2.6-4.826,1.764-5.291c-0.649-2.042-3.62-3.156-7.147-3.156s-6.963,1.115-6.963,3.063
			c-1.207,0.093-1.578,2.136-0.649,3.621C32.875,54.135,35.938,55.526,41.229,55.342z"/>
		<ellipse fill="none" stroke="#000000" stroke-width="0.3" cx="39.326" cy="48.193" rx="2.739" ry="1.95"/>
		<path fill="none" stroke="#000000" stroke-width="0.3" d="M37.053,47.266c0.463,0.742,2.784,2.042,4.92,0.091"/>
		<path fill="none" stroke="#000000" stroke-width="0.3" d="M32.596,49.029c0,1.208,1.114,2.785,6.498,2.877
			c5.385,0.094,7.334-1.763,7.334-3.063"/>
		<path fill="none" stroke="#000000" stroke-width="0.3" d="M31.761,50.422l1.577,0.834c0,1.207,0,1.207,0,1.207l3.436,0.836
			c0.463,0.463,1.113,0.557,1.299,0.278c2.878-0.092,2.878-0.092,2.878-0.092s0.743,1.486,1.577-0.372
			c2.043-0.556,2.043-0.556,2.043-0.556s1.206,0.556,1.299-1.021c1.114-0.28,1.114-0.28,1.114-0.28"/>
		<path fill="none" stroke="#000000" stroke-width="0.3" d="M41.137,55.621c0,0,3.899-1.115,3.899-1.579c0-1.206,0-3.434,0-3.434"/>
		<line fill="none" stroke="#000000" stroke-width="0.3" x1="41.042" y1="51.906" x2="40.858" y2="53.856"/>
		<line fill="none" stroke="#000000" stroke-width="0.3" x1="42.065" y1="51.628" x2="42.528" y2="53.113"/>
		<line fill="none" stroke="#000000" stroke-width="0.3" x1="37.702" y1="51.814" x2="37.702" y2="53.763"/>
		<line fill="none" stroke="#000000" stroke-width="0.3" x1="36.959" y1="51.906" x2="36.774" y2="53.299"/>
		<polyline fill="none" stroke="#000000" stroke-width="0.3" points="33.247,50.607 34.082,51.351 34.174,52.557 		"/>
	</g>
	<g>
		<line fill="none" stroke="#000000" stroke-width="0.5" x1="40.299" y1="44.256" x2="40.216" y2="38.156"/>
		<polygon points="38.781,43.127 40.317,45.599 41.786,43.086 		"/>
	</g>
	<text transform="matrix(1 0 0 1 37.9956 37.062)" font-family="'ArialNarrow-Bold'" font-size="9.5">3</text>
</g>
<g id="Layer_4">
	<g>
		<path fill="#FFFFFF" stroke="#000000" stroke-width="0.5" d="M34.878,82.313l0.093,2.598c3.25-0.184,5.756-0.184,7.519-2.506
			c2.971-2.32,3.157-4.641,1.3-5.291c-2.228-1.856-10.211-2.228-11.047,0.836C31.257,79.436,32.464,81.942,34.878,82.313z"/>
		<ellipse fill="none" stroke="#000000" stroke-width="0.3" cx="38.638" cy="79.574" rx="3.295" ry="1.068"/>
		<ellipse fill="none" stroke="#000000" stroke-width="0.3" cx="38.591" cy="80.596" rx="0.65" ry="0.695"/>
		<ellipse fill="none" stroke="#000000" stroke-width="0.3" cx="38.406" cy="78.6" rx="5.106" ry="1.857"/>
		<path fill="none" stroke="#000000" stroke-width="0.3" d="M32.372,79.528c1.856,1.299,3.621,1.763,6.219,1.763
			c2.6,0,5.478-1.021,6.127-2.412"/>
		<path fill="none" stroke="#000000" stroke-width="0.3" d="M34.692,82.034c0,0,5.849,1.578,7.612-1.393"/>
		<path fill="none" stroke="#000000" stroke-width="0.3" d="M41.84,81.477c0,0,0,1.208,1.208,0.094"/>
	</g>
	<g>
		<line fill="none" stroke="#000000" stroke-width="0.5" x1="30.379" y1="79.481" x2="24.279" y2="79.565"/>
		<polygon points="29.25,81 31.721,79.463 29.208,77.995 		"/>
	</g>
	<text transform="matrix(1 0 0 1 19.2852 82.7847)" font-family="'ArialNarrow-Bold'" font-size="9.5">4</text>
</g>
<g id="Layer_5">
	<g>
		<path fill="#FFFFFF" stroke="#000000" stroke-width="0.5" d="M33.524,64.903c0.094,0.744,3.528,2.135,6.126,1.949
			c2.6-0.185,5.292-0.929,5.199-2.228c1.949-1.393,1.485-5.755-5.292-5.662c-6.776,0.092-7.706,4.177-6.221,5.012
			C34.082,64.812,33.524,64.903,33.524,64.903z"/>
		<path fill="none" stroke="#000000" stroke-width="0.3" d="M42.065,65.647c0.557-0.651,2.598-1.672,2.321-0.186"/>
		<ellipse fill="none" stroke="#000000" stroke-width="0.3" cx="39.511" cy="62.164" rx="3.667" ry="1.625"/>
		<line fill="none" stroke="#000000" stroke-width="0.3" x1="33.06" y1="61.932" x2="35.845" y2="62.164"/>
		<path fill="none" stroke="#000000" stroke-width="0.3" d="M33.71,62.026c0,0.742-0.557,2.598,5.941,2.877
			c6.498,0.278,5.942-3.527,5.942-3.527"/>
		<path fill="none" stroke="#000000" stroke-width="0.3" d="M43.178,62.489c0,0,2.135-0.278,1.301-1.856"/>
		<path fill="none" stroke="#000000" stroke-width="0.3" d="M34.453,65.274c0.835-0.186,7.612-0.65,8.076,1.115"/>
		<path fill="none" stroke="#000000" stroke-width="0.3" d="M36.217,65.367c0.371,0,4.548,1.115,5.106,0.094"/>
	</g>
	<g>
		<line fill="none" stroke="#000000" stroke-width="0.5" x1="31.356" y1="62.859" x2="25.256" y2="62.943"/>
		<polygon points="30.227,64.378 32.698,62.841 30.186,61.373 		"/>
	</g>
	<text transform="matrix(1 0 0 1 20.4561 66.5728)" font-family="'ArialNarrow-Bold'" font-size="9.5">5</text>
</g>
<g id="Layer_6">
	<g>
		<rect x="98.608" y="89.381" fill="#FCFCFC" stroke="#000000" stroke-width="0.5" width="125.865" height="79.512"/>
		<line fill="#FCFCFC" stroke="#000000" stroke-width="0.5" x1="159.776" y1="89.31" x2="159.776" y2="86.75"/>
	</g>
	<text transform="matrix(1 0 0 1 157.623 85.6729)" font-family="'ArialNarrow-Bold'" font-size="9.5">6</text>
	<text transform="matrix(1 0 0 1 164.373 86.3896)" fill="none" font-family="'ArialNarrow-Bold'" font-size="9.5">7,8</text>
	<g>
		<path fill="#FFFFFF" stroke="#000000" stroke-width="0.5" d="M159.981,123.711c1.086,0.25,3.508,3.092,3.508,5.182
			c3.51,0.416,3.51,0.416,3.51,0.416s1.171,0.251,0.918,1.505c-0.251,1.254-0.585,1.001-1.337,1.001s-3.258,0.168-3.258,0.168
			s-1.42,4.261-4.094,4.844c-1.337,5.266-2.926,11.198-9.108,18.3c-6.182,7.1-18.047,9.524-26.149,4.845
			c-9.774-0.919-17.46-11.111-19.217-21.975c-1.754-10.86-0.584-26.566,8.607-35.174c7.854-7.435,12.446-6.85,12.446-6.85
			s11.282-4.512,20.303,1.086c9.024,5.597,11.112,14.371,12.282,17.963C159.563,118.615,159.981,123.711,159.981,123.711z"/>
		<ellipse fill="none" stroke="#000000" stroke-width="0.3" cx="124.764" cy="128.515" rx="4.218" ry="5.806"/>
		<circle fill="none" stroke="#000000" stroke-width="0.3" cx="113.695" cy="109.339" r="1.419"/>
		<path fill="none" stroke="#000000" stroke-width="0.3" d="M104.169,123.792c0,0,8.439,1.255,8.939,1.255
			c0,3.426,0,8.441,1.254,11.112c1.255,2.673,3.511,4.932,2.59,6.184c-0.918,1.254-5.096,7.937-4.26,8.856"/>
		<path fill="none" stroke="#000000" stroke-width="0.3" d="M111.772,131.647c0,0,4.011,0.084,4.263,0.084
			c0.669,0.083,0.5,1.421-0.251,1.588c-0.752,0.169-3.76,0.085-3.76,0.085C111.188,133.319,110.603,131.982,111.772,131.647z"/>
		<line fill="none" stroke="#000000" stroke-width="0.3" x1="114.197" y1="131.731" x2="114.698" y2="133.568"/>
		<line fill="none" stroke="#000000" stroke-width="0.3" x1="115.114" y1="131.565" x2="115.45" y2="133.319"/>
		<line fill="none" stroke="#000000" stroke-width="0.3" x1="112.441" y1="131.565" x2="113.108" y2="133.404"/>
		<line fill="none" stroke="#000000" stroke-width="0.3" x1="111.772" y1="131.647" x2="112.023" y2="133.404"/>
		<path fill="none" stroke="#000000" stroke-width="0.3" d="M126.645,123.544c-1.42,0-2.59,3.759-2.338,5.013
			c0.248,1.252,0.833,5.764,3.507,4.011"/>
		<path fill="none" stroke="#000000" stroke-width="0.3" d="M126.144,123.627c-0.083-1.086-4.595,0.835-4.263,5.014
			c0.335,4.179,3.511,5.18,4.43,4.259"/>
		<path fill="none" stroke="#000000" stroke-width="0.3" d="M128.65,126.051c-1.505-0.335-2.423,1.336-2.258,2.506
			c0.168,1.169,0.836,2.59,2.426,1.756"/>
		<path fill="none" stroke="#000000" stroke-width="0.3" d="M114.362,110.677h1.755c0.835,2.09,2.672,0.585,2.672-0.919
			c0-1.503-2.005-3.509-2.672-1.587c-1.086,0.167-1.086,0.167-1.086,0.167c0.167-1.837,3.008-3.677,4.263-1.002
			c1.252,2.673,2.17,4.428,2.17,4.428"/>
		<path fill="none" stroke="#000000" stroke-width="0.3" d="M116.118,108.171c0.835,0.084,2.005,0.585,1.671,1.67
			c-0.335,1.087-1.671,0.836-1.671,0.836"/>
		<path fill="none" stroke="#000000" stroke-width="0.3" d="M114.446,108.004c0.585-2.006,2.006-3.427,3.258-3.427
			c1.253,0,3.259,2.257,3.175,5.599"/>
		<path fill="none" stroke="#000000" stroke-width="0.3" d="M115.114,110.761c0,0,0.837,3.759,1.754,4.011"/>
		<path fill="none" stroke="#000000" stroke-width="0.3" d="M146.863,132.399l-9.106-2.006v-6.518c0,0,8.688-1.67,5.014-9.941
			c-3.009-5.931-8.106,1.254-8.355,1.671l-0.921-1.338l6.186-9.69l-7.521,9.61l1.837,2.671c0,0,4.847-4.176,6.017-2.006
			c1.17,2.175,0.669,6.102-3.258,7.938c-0.501,6.017-0.334,8.106-0.334,8.106l10.944,1.586"/>
		<path fill="none" stroke="#000000" stroke-width="0.3" d="M128.314,122.875c0,0,4.264-0.416,4.512-0.416
			c0.92,0.082,1.004,1.502,0.336,1.586c-0.669,0.083-4.512,0.083-4.512,0.083S127.813,122.959,128.314,122.875z"/>
		<line fill="none" stroke="#000000" stroke-width="0.3" x1="130.822" y1="122.624" x2="130.822" y2="124.378"/>
		<line fill="none" stroke="#000000" stroke-width="0.3" x1="131.488" y1="122.459" x2="131.573" y2="124.045"/>
		<line fill="none" stroke="#000000" stroke-width="0.3" x1="132.073" y1="122.375" x2="132.073" y2="124.128"/>
		<line fill="none" stroke="#000000" stroke-width="0.3" x1="132.493" y1="122.375" x2="132.578" y2="124.128"/>
		<line fill="none" stroke="#000000" stroke-width="0.3" x1="129.818" y1="122.624" x2="129.987" y2="124.045"/>
		<line fill="none" stroke="#000000" stroke-width="0.3" x1="128.898" y1="122.707" x2="129.066" y2="124.128"/>
		<path fill="none" stroke="#000000" stroke-width="0.3" d="M124.807,95.973c7.854,0.167,22.892,3.259,24.062,31.08
			c-0.083,27.404-19.382,33.67-24.478,33.002"/>
		<path fill="none" stroke="#000000" stroke-width="0.3" d="M127.396,96.14c5.264-2.089,15.374-1.253,20.887,6.767
			c5.514,8.021,8.438,16.878,7.938,24.229c-0.503,7.354-1.59,24.815-17.211,32.418c-7.354,2.423-13.034,0.669-13.034,0.669"/>
		<path fill="none" stroke="#000000" stroke-width="0.3" d="M129.234,161.977c5.766,0.334,13.033-0.084,21.222-11.029
			c8.188-10.945,6.935-27.656,6.266-30.411c-0.334-2.673-2.422-15.54-12.281-22.726c-7.771-4.512-9.19-3.592-9.19-3.592"/>
		<polyline fill="none" stroke="#000000" stroke-width="0.3" points="146.779,97.478 145.944,97.978 147.867,99.48 		"/>
		<line fill="none" stroke="#000000" stroke-width="0.3" x1="159.981" y1="123.711" x2="159.229" y2="136.826"/>
		<path fill="none" stroke="#000000" stroke-width="0.3" d="M159.729,124.713c2.34,1.754,1.924,8.939-0.416,10.777"/>
		<path fill="none" stroke="#000000" stroke-width="0.3" d="M163.405,128.392c0,0,0.253,3.256-0.416,4.092"/>
		<line fill="none" stroke="#000000" stroke-width="0.3" x1="164.493" y1="128.977" x2="164.574" y2="131.731"/>
		<line fill="none" stroke="#000000" stroke-width="0.3" x1="165.159" y1="129.141" x2="165.244" y2="131.731"/>
		<line fill="none" stroke="#000000" stroke-width="0.3" x1="166.08" y1="129.225" x2="166.164" y2="131.814"/>
		<polyline fill="none" stroke="#000000" stroke-width="0.3" points="158.309,114.353 157.475,114.52 157.976,117.278 
			158.894,117.194 		"/>
		<polyline fill="none" stroke="#000000" stroke-width="0.3" points="159.813,127.471 158.81,127.555 158.81,130.478 
			159.646,130.394 		"/>
		<polyline fill="none" stroke="#000000" stroke-width="0.3" points="158.393,140.002 157.141,140.422 156.388,142.676 
			157.475,143.261 		"/>
		<polyline fill="none" stroke="#000000" stroke-width="0.3" points="151.291,153.621 150.373,153.205 151.876,151.449 
			153.129,151.365 		"/>
		<path fill="none" stroke="#000000" stroke-width="0.3" d="M143.521,160.305l-0.419-0.668l1.505-1.504c0,0,0.835,0,1.67,0.25"/>
		<polyline fill="none" stroke="#000000" stroke-width="0.3" points="153.213,103.659 152.044,103.742 153.881,106.332 
			154.717,105.998 		"/>
	</g>
	<g>
		<path fill="#FFFFFF" stroke="#000000" stroke-width="0.5" d="M174.352,128.473l-1.254,0.251c-1.254,0.585-2.842,3.676,0.669,4.512
			c1.921,1.754,3.927,0.501,4.011-2.591C177.858,127.555,174.268,127.888,174.352,128.473z"/>
		<path fill="none" stroke="#000000" stroke-width="0.3" d="M173.098,128.724c1.254-0.251,1.254,2.675,0.669,4.512"/>
		<path fill="none" stroke="#000000" stroke-width="0.3" d="M174.519,128.223c1.085,0,4.092,3.425,0.165,5.346"/>
		<line fill="none" stroke="#000000" stroke-width="0.3" x1="174.183" y1="129.978" x2="176.188" y2="129.809"/>
		<line fill="none" stroke="#000000" stroke-width="0.3" x1="174.017" y1="132.067" x2="176.439" y2="132.067"/>
		<ellipse fill="none" stroke="#000000" stroke-width="0.3" cx="173.181" cy="131.063" rx="0.835" ry="1.005"/>
	</g>
</g>
<g id="Layer_7">
	<g>
		<path fill="#FFFFFF" stroke="#000000" stroke-width="0.5" d="M203.342,115.355l17.128,8.104c0,0,2.673,6.349-0.083,12.534
			c-2.759,6.182-4.596,9.021-6.77,8.438c-3.008-1.42-17.543-8.021-17.543-8.021s-1.005-9.274,1.168-14.035
			C199.416,117.61,201.755,114.938,203.342,115.355z"/>
		<path fill="none" stroke="#000000" stroke-width="0.3" d="M202.171,115.521l17.713,8.439c0.084,4.347,2.256,10.779-5.763,20.553"
			/>
		<ellipse fill="none" stroke="#000000" stroke-width="0.3" cx="199.039" cy="134.197" rx="0.793" ry="1.377"/>
		<ellipse fill="none" stroke="#000000" stroke-width="0.3" cx="203.3" cy="119.533" rx="1.044" ry="1.588"/>
		<ellipse fill="none" stroke="#000000" stroke-width="0.3" cx="216.961" cy="125.966" rx="0.92" ry="1.589"/>
		<path fill="none" stroke="#000000" stroke-width="0.3" d="M213.785,140.506c0,0.781-0.41,1.417-0.92,1.417
			c-0.506,0-0.919-0.636-0.919-1.417c0-0.787,0.413-1.421,0.919-1.421C213.375,139.085,213.785,139.719,213.785,140.506z"/>
		<ellipse fill="none" stroke="#000000" stroke-width="0.3" cx="208.229" cy="130.102" rx="5.807" ry="8.063"/>
		<path fill="none" stroke="#000000" stroke-width="0.3" d="M203.76,118.112c-0.336,0.167-1.337,3.009-0.168,3.009"/>
		<path fill="none" stroke="#000000" stroke-width="0.3" d="M213.284,139.085c-0.419,0-1.338,2.591,0.083,2.422"/>
		<path fill="none" stroke="#000000" stroke-width="0.3" d="M217.377,124.462c-0.5,0.251-1.336,2.841,0,2.841"/>
		<path fill="none" stroke="#000000" stroke-width="0.3" d="M199.416,132.734c-0.336,0.418-1.254,2.34-0.252,2.591"/>
		<path fill="none" stroke="#000000" stroke-width="0.3" d="M209.19,122.123c-0.835,0.252-5.767,2.59-5.767,8.021
			c0,5.43,2.426,7.603,3.344,7.771"/>
	</g>
	<g>
		<line fill="none" stroke="#000000" stroke-width="0.5" x1="202.75" y1="114.25" x2="202.667" y2="108.149"/>
		<polygon points="201.231,113.121 202.769,115.593 204.237,113.08 		"/>
	</g>
	<text transform="matrix(1 0 0 1 200.5469 107.208)" font-family="'ArialNarrow-Bold'" font-size="9.5">7</text>
</g>
<g id="Layer_8">
	<g>
		<path fill="#FFFFFF" stroke="#000000" stroke-width="0.5" d="M179.531,131.898l4.26,2.758l3.091-0.336l1.505,0.838h2.173
			l0.501-0.418v-1.252c0,0,1.754-2.09,1.502-4.264c0.504-0.668,0.504-0.668,0.504-0.668l-1.422-1.67l-2.005,0.668l-1.337-1.337
			l-6.349,0.165c0,0-0.919,0.586-0.418,1.088C180.115,129.893,179.531,131.898,179.531,131.898z"/>
		<line fill="none" stroke="#000000" stroke-width="0.3" x1="185.797" y1="129.978" x2="184.043" y2="134.573"/>
		<polyline fill="none" stroke="#000000" stroke-width="0.3" points="187.218,134.237 188.639,129.726 185.797,129.978 
			181.701,127.136 		"/>
		<path fill="none" stroke="#000000" stroke-width="0.3" d="M188.555,129.978c0,0,1.418-2.591,2.839,0.084"/>
		<line fill="none" stroke="#000000" stroke-width="0.3" x1="192.814" y1="128.808" x2="190.642" y2="129.141"/>
		<path fill="none" stroke="#000000" stroke-width="0.3" d="M183.959,127.136l2.923,0.167c-1.754,0.168-2.339,0.669-1.754,1.254
			c0.585,0.584,2.842-0.165,3.76-0.249c0.92,0.333,2.09,0.585,3.259-0.42"/>
		<line fill="none" stroke="#000000" stroke-width="0.3" x1="187.467" y1="133.319" x2="191.478" y2="132.899"/>
		<line fill="none" stroke="#000000" stroke-width="0.3" x1="187.302" y1="133.82" x2="191.145" y2="133.904"/>
		<path fill="none" stroke="#000000" stroke-width="0.3" d="M191.42,130.988c-0.219,0.532-0.725,0.832-1.13,0.665
			c-0.406-0.165-0.558-0.729-0.341-1.266c0.218-0.536,0.725-0.834,1.131-0.669C191.485,129.887,191.638,130.452,191.42,130.988z"/>
		<ellipse fill="none" stroke="#000000" stroke-width="0.3" cx="182.58" cy="131.272" rx="1.211" ry="1.712"/>
		<path fill="none" stroke="#000000" stroke-width="0.3" d="M182.955,129.56c-0.585,0.418-1.419,2.84,0.336,3.008"/>
		<path fill="none" stroke="#000000" stroke-width="0.3" d="M183.458,130.313c-0.336,0.165-0.668,1.67,0.249,1.755"/>
	</g>
	<g>
		<line fill="none" stroke="#000000" stroke-width="0.5" x1="184.25" y1="125" x2="184.167" y2="118.899"/>
		<polygon points="182.731,123.871 184.269,126.343 185.737,123.83 		"/>
	</g>
	<text transform="matrix(1 0 0 1 182.0625 117.8496)" font-family="'ArialNarrow-Bold'" font-size="9.5">8</text>
</g>
<g id="Layer_9">
	<g>
		<rect x="113.964" y="26.559" fill="#FCFCFC" stroke="#000000" stroke-width="0.5" width="106.592" height="49.165"/>
		<line fill="#FCFCFC" stroke="#000000" stroke-width="0.5" x1="160.751" y1="26.447" x2="160.751" y2="24"/>
	</g>
	<text transform="matrix(1 0 0 1 158.6045 22.9106)" font-family="'ArialNarrow-Bold'" font-size="9.5">9</text>
	<g>
		<path fill="#FFFFFF" stroke="#000000" stroke-width="0.5" d="M125.48,52.058l-0.668,1.672c0,0-1.783,1.225-0.445,1.558
			c1.338,0.334,3.342,0.891,4.121,1.449c1.115,0.667,1.895,0.335,2.005-1.115c1.003-2.339,1.226-3.899-1.337-4.344
			C126.596,50.832,125.705,51.389,125.48,52.058z"/>
		<path fill="none" stroke="#000000" stroke-width="0.3" d="M125.705,51.61c0,0,2.783,2.341,5.456,1.448"/>
		<polyline fill="none" stroke="#000000" stroke-width="0.3" points="124.813,55.176 125.926,53.17 129.604,54.173 128.488,56.736 
					"/>
		<line fill="none" stroke="#000000" stroke-width="0.3" x1="125.258" y1="54.508" x2="129.156" y2="55.733"/>
	</g>
	<g>
		<path fill="#FFFFFF" stroke="#000000" stroke-width="0.5" d="M128.096,47.899l2.45-6.164c0,0,1.039-1.188-0.817-1.857
			c-2.673-0.816-9.578-2.896-9.578-2.896s-1.783-0.669-1.487-1.931c0.298-1.263,1.56-1.931,3.788-2.08
			c2.229-0.147,6.76-0.964,6.76-0.964s2.151-0.074,4.157,0.37c2.005,0.447,8.987,3.194,8.987,3.194s2.969,0.742,3.191,1.56
			c0.966-0.223,1.855-0.149,2.674,0.667c1.486,0.892,6.164,2.451,6.164,2.451s2.525,0.966,3.195,3.937
			c0.813,2.3,2.375,1.782,3.487,0.667c1.115-1.114,2.601-1.484,4.013-0.52c1.41,0.966,1.41,1.784,0.593,6.61
			c-0.816,4.827-2.153,6.833,2.377,6.98c4.53,0.149,10.099,0.298,10.694,0.445c0.594,0.149,4.01,0.224,7.277,1.858
			c3.27,1.632,11.215,6.015,13.665,6.015c2.451,0,6.017,0.148,6.017,0.148c1.484,0.223,1.708,3.491-0.669,3.491
			c-4.455-0.075-5.273-0.222-6.536-0.296c-1.262-0.074-10.1-4.605-11.883-5.422c-1.782-0.816-4.604-2.302-6.906-2.302
			c-2.302,0-11.809-0.816-12.254-0.816c-2.375,0-6.534-1.635-6.239-5.05c0.298-3.417,1.858-6.537,1.189-7.502
			c-3.417,1.932-5.049,3.12-6.981-1.633c-1.188-2.971-1.708-3.267-2.599-3.638c-0.89-0.373-3.489-1.189-3.489-1.189
			c-0.148,1.264-2.305,1.708-2.377-0.667c-2.081-0.669-1.784-0.965-2.155-1.338c-0.741,0.149-0.741,0.149-0.741,0.149l-0.076,1.262
			l-1.931-0.742l-0.22-1.633c0,0-8.689-4.531-11.068-4.307c-2.375,0.222-5.271,0.592-2.895,1.336
			c2.377,0.742,7.277,1.188,5.94,5.198c-1.338,4.01-2.971,7.946-2.971,7.946C129.878,50.052,127.65,48.79,128.096,47.899z"/>
		<path fill="none" stroke="#000000" stroke-width="0.3" d="M122.303,34.457c0.223,0,4.828,1.263,4.828,1.263"/>
		<path fill="none" stroke="#000000" stroke-width="0.3" d="M142.65,35.422c0,0-2.746,2.154-0.371,3.64"/>
		<path fill="none" stroke="#000000" stroke-width="0.3" d="M145.547,36.833c-0.669,0-1.782,1.857-0.743,3.193"/>
		<path fill="none" stroke="#000000" stroke-width="0.3" d="M141.907,38.838l2.155,1.337c-1.707-0.966,0.072-3.788,0.815-3.862"/>
		<path fill="none" stroke="#000000" stroke-width="0.3" d="M146.363,37.056c-0.593,0.371-1.709,2.524-0.593,3.787"/>
		<line fill="none" stroke="#000000" stroke-width="0.3" x1="144.582" y1="39.878" x2="145.324" y2="38.838"/>
		<path fill="none" stroke="#000000" stroke-width="0.3" d="M148.221,37.798c-1.115-0.073-2.377,2.377-1.262,3.566"/>
		<path fill="none" stroke="#000000" stroke-width="0.3" d="M150.003,38.542c-0.892,0-2.972,2.673-0.667,3.49"/>
		<path fill="none" stroke="#000000" stroke-width="0.3" d="M148.295,42.477l-1.264-1.93c0,0,0.744-2.229,2.156-2.005"/>
		<path fill="none" stroke="#000000" stroke-width="0.3" d="M162.332,48.715c0.444-0.816,1.262-1.708,2.152-1.336"/>
	</g>
	<g>
		<path fill="#FFFFFF" stroke="#000000" stroke-width="0.5" d="M211.58,63.981c-0.447-2.005,1.56-2.785,1.892,0.112
			c3.679,1.336,3.679,1.336,3.679,1.336s-1.784,1.002-1.672,1.671c1.004,1.558,0,3.899-2.449,3.563
			c-2.453-0.333-4.345-0.333-4.234-4.232C209.131,63.536,211.58,63.981,211.58,63.981z"/>
		<path fill="none" stroke="#000000" stroke-width="0.3" d="M210.91,64.205c1.561-0.112,1.896,1.782,1.338,2.562
			c-0.556,0.779,0.892,3.008-0.334,3.564"/>
		<path fill="none" stroke="#000000" stroke-width="0.3" d="M212.361,65.652c0,0,3.897-0.111,3.897,0.557"/>
		<path fill="none" stroke="#000000" stroke-width="0.3" d="M212.138,67.77c0,0,2.896-0.447,3.564,0"/>
		<path fill="none" stroke="#000000" stroke-width="0.3" d="M213.472,70.442c-0.332-0.78-0.108-1.896-0.108-1.896l1.334,0.112
			l-0.223,1.672"/>
		<path fill="none" stroke="#000000" stroke-width="0.3" d="M211.245,65.43c-0.78,0.112-1.448,2.785-0.557,3.009"/>
		<line fill="none" stroke="#000000" stroke-width="0.3" x1="212.138" y1="64.426" x2="213.472" y2="64.093"/>
	</g>
	<g>
		<polygon fill="#FFFFFF" stroke="#000000" stroke-width="0.5" points="170.419,42.848 169.863,43.071 169.751,47.973 
			171.424,47.861 174.653,48.085 175.545,45.634 175.545,42.96 175.991,40.398 174.653,39.285 174.653,36.387 172.76,36.277 
			171.757,38.393 170.419,38.503 		"/>
		<polyline fill="none" stroke="#000000" stroke-width="0.3" points="170.419,38.503 172.76,40.956 175.878,40.732 		"/>
		<polyline fill="none" stroke="#000000" stroke-width="0.3" points="171.757,38.393 173.314,40.063 174.877,39.73 		"/>
		<line fill="none" stroke="#000000" stroke-width="0.3" x1="171.757" y1="47.973" x2="172.427" y2="40.732"/>
		<polyline fill="none" stroke="#000000" stroke-width="0.3" points="172.314,43.295 174.764,43.183 175.211,46.747 		"/>
		<path fill="none" stroke="#000000" stroke-width="0.3" d="M172.203,42.181c0.334,0,1.894,0,1.894,0l0.22-1.449"/>
	</g>
</g>
</svg>
